<svg xmlns="http://www.w3.org/2000/svg" viewBox="0 0 100 100">
  <defs>
    <linearGradient id="bg" x1="0%" y1="0%" x2="100%" y2="100%">
      <stop offset="0%" style="stop-color:#0aad0a"/>
      <stop offset="100%" style="stop-color:#059669"/>
    </linearGradient>
  </defs>
  <rect width="100" height="100" rx="20" fill="url(#bg)"/>
  <!-- Shopping cart icon -->
  <g fill="white" transform="translate(50,48)">
    <path d="M-32,-22 L-28,-22 L-18,8 L26,8 L34,-12 L-24,-12 L-22,-8 L30,-8 L26,4 L-16,4 Z"/>
    <rect x="-36" y="-22" width="8" height="6" rx="2"/>
    <circle cx="-14" cy="12" r="5"/>
    <circle cx="22" cy="12" r="5"/>
  </g>
  <!-- Leaf on top -->
  <g transform="translate(65,20)" fill="white">
    <path d="M0,15 C-8,15 -12,5 -8,-5 C-4,-15 8,-12 10,-5 C12,2 8,15 0,15Z"/>
    <line x1="0" y1="15" x2="2" y2="-2" stroke="#059669" stroke-width="1.5" stroke-linecap="round"/>
  </g>
</svg>
